<?xml version="1.0" encoding="UTF-8" standalone="no"?>
<!-- Created with Inkscape (http://www.inkscape.org/) -->

<svg
   width="14mm"
   height="14mm"
   viewBox="0 0 14 14"
   version="1.1"
   id="svg310"
   inkscape:version="1.1.2 (0a00cf5339, 2022-02-04)"
   sodipodi:docname="vieb.svg"
   xmlns:inkscape="http://www.inkscape.org/namespaces/inkscape"
   xmlns:sodipodi="http://sodipodi.sourceforge.net/DTD/sodipodi-0.dtd"
   xmlns="http://www.w3.org/2000/svg"
   xmlns:svg="http://www.w3.org/2000/svg">
  <sodipodi:namedview
     id="namedview312"
     pagecolor="#ffffff"
     bordercolor="#666666"
     borderopacity="1.0"
     inkscape:pageshadow="2"
     inkscape:pageopacity="0.0"
     inkscape:pagecheckerboard="0"
     inkscape:document-units="mm"
     showgrid="false"
     width="14mm"
     inkscape:showpageshadow="false"
     showborder="false"
     inkscape:zoom="0.47482464"
     inkscape:cx="396.98867"
     inkscape:cy="561.25984"
     inkscape:window-width="1358"
     inkscape:window-height="742"
     inkscape:window-x="1"
     inkscape:window-y="17"
     inkscape:window-maximized="0"
     inkscape:current-layer="layer1" />
  <defs
     id="defs307" />
  <g
     inkscape:label="Layer 1"
     inkscape:groupmode="layer"
     id="layer1">
    <g
       id="g577"
       transform="matrix(0.02651035,0,0,0.02649804,-0.21923841,-0.21922514)">
      <g
         transform="translate(-69.981,-160.33)"
         id="g536">
        <g
           transform="matrix(1.5324,0,0,1.394,-54.912,-41.792)"
           stroke="#000000"
           id="g534">
          <g
             stroke-width="0.94572px"
             id="g504">
            <path
               d="M 260.51,170.7 105.99,340.8 259.87,510.19 414.39,340.09 Z"
               fill="#a5001e"
               id="path496" />
            <path
               d="M 259.86,171.4 V 156.517 L 91.82,341.497 h 14.165 l 153.88,-170.1 z"
               fill="#ff4f5a"
               id="path498" />
            <path
               d="m 259.48,171.4 v -14.883 l 168.04,184.98 h -14.165 l -153.88,-170.1 z"
               fill="#ff0098"
               id="path500" />
            <path
               d="m 259.86,511.17 v 14.883 L 91.82,341.073 h 14.165 l 153.88,170.1 z"
               fill="#870031"
               id="path502" />
          </g>
          <path
             d="m 122.99,175.31 h 108.35 l 6.6014,7.2666 v 22.301 l -5.2356,7.0161 h -11.837 v 110.75 l 101.98,-110.75 h -16.845 l -5.9185,-7.0161 v -23.554 l 5.4632,-5.5126 h 109.72 l 5.4632,6.0138 v 22.051 l -248.12,280.14 h -28.227 l -8.1703,-5.1925 v -267.93 h -13.683 l -5.008,-5.5126 v -23.554 l 5.4632,-6.5149 z"
             fill="none"
             stroke-width="18.914"
             id="path506" />
          <path
             d="m 259.48,511.17 v 14.883 l 168.04,-184.98 h -14.165 l -153.88,170.1 z"
             fill="#66002a"
             stroke-width="0.94572px"
             id="path508" />
          <path
             d="M 259.41,155.15 90.73,340.82 258.7,525.72 427.38,340.05 Z"
             fill="none"
             stroke-width="5.6743"
             id="path510" />
          <path
             d="m 232.5,186.64 6.1166,-3.5437 -6.2775,-6.9101 h -109.29 l -5.5532,6.1128 v 23.122 l 6.1568,6.7772 2.9376,-6.7772 -3.8631,-4.2524 v -16.301 l 2.8973,-2.8349 h 104.3 l 2.5754,4.6068 z"
             fill="#fefefe"
             stroke-width="0.94572px"
             id="path512" />
          <path
             transform="matrix(0.90139,0,0,0.99223,-437.42,-185.31)"
             d="m 828.94,369.5 -4.2812,4.2812 v 15.719 l 3.75,3.75 h 19.812 v 15.188 l -131.06,132.84 v -147.84 h 21.781 l 4.4688,-4.4688 v -15.906 l -4.125,-3.1875 h -114.62 l -3.75,3.75 v 16.25 l 3.8125,3.8125 h 19.938 v 272.25 l 3.75,3.75 h 22.656 l 274.66,-283.41 v -12.5 l -4.2812,-4.2812 h -112.5 z"
             fill="none"
             stroke-width="1px"
             id="path514" />
          <g
             id="g532">
            <g
               stroke-width="0.94572px"
               id="g524">
              <path
                 d="m 143.48,204.87 v 270.62 l 3.1869,4.0092 -2.4992,5.243 -7.0615,-7.7488 v -265.11 z"
                 fill="#fefefe"
                 id="path516" />
              <path
                 d="m 125.82,204.87 -1.8211,6.5149 h 13.203 l 7.2843,-6.5149 h -18.666 z"
                 fill="#808080"
                 id="path518" />
              <path
                 d="m 307.19,212.19 2.8973,-6.5558 -4.185,-4.2524 v -14.529 l 4.8289,-5.3155 h 100.76 l 3.8631,5.6699 5.4727,-4.2524 -5.6337,-6.2014 h -108.33 l -5.3922,5.9356 v 23.3 l 5.5934,5.8028 m -87.543,111.88 -10.523,28.106 118.79,-131.12 v -15.592 l -108.27,118.6 z"
                 fill="#fefefe"
                 id="path520" />
              <path
                 d="m 232.26,185.83 5.2356,-3.7586 v 22.802 l -6.0323,6.6402 h -11.723 v 112.38 l -10.699,27.814 v -146.84 h 19.577 l 3.6421,-3.2575 v -15.786 z"
                 fill="#808080"
                 id="path522" />
            </g>
            <path
               transform="matrix(0.90139,0,0,0.99223,-437.42,-185.31)"
               d="m 828.94,369.5 -4.2812,4.2812 v 15.719 l 3.75,3.75 h 19.812 v 15.188 l -131.06,132.84 v -147.84 h 21.781 l 4.4688,-4.4688 v -15.906 l -4.125,-3.1875 h -114.62 l -3.75,3.75 v 16.25 l 3.8125,3.8125 h 19.938 v 272.25 l 3.75,3.75 h 22.656 l 274.66,-283.41 v -12.5 l -4.2812,-4.2812 h -112.5 z"
               fill="#cccccc"
               stroke-width="1px"
               id="path526" />
            <path
               d="m 415.35,185.93 5.4985,-3.4945 v 21.922 l -249.39,280.52 h -26.477 l 2.5297,-5.5331 h 20.281 l 247.24,-281.01 z"
               fill="#808080"
               stroke-width="0.94572px"
               id="path528" />
            <path
               d="m 327.3,205.25 -5.577,6.3897 h -14.569 l 3.4145,-6.3897 h 16.731 z"
               fill="#808080"
               stroke-width="0.94572px"
               id="path530" />
          </g>
        </g>
      </g>
      <g
         transform="matrix(0.14901,0,0,0.12376,26.651,63.559)"
         fill="#cccccc"
         stroke="#000000"
         stroke-width="37.794"
         style="white-space:pre;shape-inside:url(#rect60886)"
         aria-label="IEB"
         id="g544">
        <path
           d="m 1531.7,2716.5 28.235,-143.94 h 492.18 l -28.235,143.94 h -164.43 l -104.08,538.68 h 164.43 l -28.789,143.94 h -491.62 l 28.235,-143.94 h 164.43 l 104.08,-538.68 z"
           id="path538" />
        <path
           d="m 2597.4,3399.1 h -514.32 l 159.44,-826.57 h 515.98 l -28.235,143.94 h -351.55 l -34.879,178.27 h 318.34 l -27.128,143.94 h -318.34 l -42.076,216.47 h 351.55 z"
           id="path540" />
        <path
           d="m 2969.4,3023.8 -47.612,244.7 h 109.06 q 86.366,0 126.78,-36.539 40.968,-37.093 40.968,-115.15 0,-47.612 -29.342,-70.311 -29.342,-22.699 -90.795,-22.699 z m 62.56,-322.21 -37.647,192.11 h 109.06 q 66.989,0 100.76,-29.896 34.325,-30.45 34.325,-89.134 0,-37.647 -23.806,-55.363 -23.806,-17.716 -73.632,-17.716 z m -132.87,-130.1 h 266.85 q 116.82,0 176.05,45.951 59.792,45.951 59.792,136.75 0,89.134 -52.595,143.94 -52.595,54.809 -149.48,65.882 76.954,6.6435 119.58,50.38 42.629,43.737 42.629,116.26 0,59.792 -21.038,111.83 -21.038,51.487 -59.238,86.366 -41.522,37.093 -105.19,53.702 -63.667,16.609 -171.62,16.609 h -266.3 z"
           id="path542" />
      </g>
    </g>
  </g>
</svg>
